# xmcd CD database generated by RipIT
#
# Track frame offsets:
# 150
# 18897
# 67278
# 100680
# 129779
#
# Disc length: 4440 seconds
#
# Revision: 0
# Processed by: cddbd v1.5.1PL2 Copyright (c) Steve Scherf et al.
# Submitted via: RipIT 3.4 www.suwald.com/ripit/ripit.html at Tue Aug 30 13:49:24 CEST 2005
#
DISCID=37115605
DTITLE=Delerium - Chimera [CD2)
DYEAR=2003
DGENRE=Trip-Hop
TTITLE0=Stopwatch Hearts (feat. Emily Haines)
TTITLE1=After All (feat. Jaël) (Satoshi Tomiie Remix) 
TTITLE2=After All (feat. Jaël) (Andrew Sega Mix)
TTITLE3=After All (feat. Jaël) (Amniotic Insomniac Remix by Adrian Shubert)
TTITLE4=data
EXTD=
EXTT0=
EXTT1=
EXTT2=
EXTT3=
EXTT4=
PLAYORDER=
